<?xml version="1.0" encoding="UTF-8"?>
<svg id="Layer_1" data-name="Layer 1" xmlns="http://www.w3.org/2000/svg" viewBox="0 0 42.36 43">
  <defs>
    <style>
      .cls-1 {
        fill: #050505;
        stroke-width: 0px;
      }
    </style>
  </defs>
  <g id="a">
    <g>
      <path class="cls-1" d="M33.53,11.31c-2.65,1.56-3.47,1.69-6.35,3.42,1.68-1.82,2.26-2.6,3.3-4.12-2.66.14-6.53.46-9.29,1.07h0c2.4-1.28,7.17-2.71,9.68-3.05-.58-.8-5.3-3.36-6.48-3.85h0c3.74.29,8.3,1.69,10.52,3.04.87-.27,1.78-.29,3.4-.43h0c-.41.71-.43,1.12-2.02,2.17h0c.44,1.18-.61,7.66-1.48,9.38h0c-.03-2.71-.27-6.13-1.28-7.62h0Z"/>
      <path class="cls-1" d="M14.1,34.56c-1.52-.57-2.62-1.22-3.83-2.35h0c.36-1,.77-1.78,1.45-2.78h0c-1.24.19-2.15.33-3.22.53h0c-.87-1.52-1.26-2.99-1.71-5.03h0c-.24,2.17-.33,3.71-.02,5.44h0c-.98.27-1.67.51-2.48.87h0c1.13.69,2.04,1.22,3.31,1.81h0c.68,1.45,1.38,2.44,2.52,3.56h0c-.27-.96-.34-1.71-.23-2.72h0c1.41.41,2.62.63,4.22.68h-.01Z"/>
      <path class="cls-1" d="M18.07,13h0c-.47.62-1.03,1.77-1.17,2.3h0c3.93.53,7.08,2.55,7.08,2.55h0c-3.44-.61-5.25-.53-6.53-.42h0c-1.27.12-1.54.27-1.54.27h0c-.93,2.03-1.48,5.52-1.48,5.52h0c-.62-1.51-1.53-4.53-1.53-4.53h0c-1.73.93-5.72,4.68-5.72,4.68h0c2.19-4.39,4.42-6.39,4.42-6.39h0c-.77-.78-2.77-1.16-4.24-1.23h0c.76-.31,2.72-.68,4.22-.74h0c1.5-.04,2.41.04,2.41.04h0c1.34-1.06,3.38-1.95,4.08-2.06h0Z"/>
      <path class="cls-1" d="M22.24,31.84c-.69.94-1.29,1.68-2.06,2.54h0c-1.32.37-2.38.51-3.67.51h0c.79.41,1.56.65,2.38.83h0c-.83.75-1.52,1.28-2.33,1.79h0c1.34-.32,3.11-.89,4.43-1.67h0c.69.03,1.33-.02,1.8-.11h0c-.12-.4-.2-.7-.3-1.21h0c1.24-.96,2.14-1.83,3.17-2.87h0c-1.1.77-2.04,1.34-3.31,1.94h0c-.05-.59-.09-1.08-.12-1.74h.01Z"/>
    </g>
  </g>
</svg>